<svg width="12" height="12" viewBox="0 0 12 12" fill="none" xmlns="http://www.w3.org/2000/svg">
<path fill-rule="evenodd" clip-rule="evenodd" d="M6.70714 3.57322L11 7.86611C11.1953 8.06137 11.1953 8.37796 11 8.57322C10.8048 8.76848 10.4882 8.76848 10.2929 8.57322L6.00004 4.28033L1.70714 8.57322C1.51188 8.76848 1.1953 8.76848 1.00004 8.57322C0.804775 8.37796 0.804775 8.06137 1.00004 7.86611L5.29293 3.57322C5.68346 3.18269 6.31662 3.1827 6.70714 3.57322Z" fill="#1A1A1A" fill-opacity="0.64"/>
<path fill-rule="evenodd" clip-rule="evenodd" d="M6.70714 3.57322L11 7.86611C11.1953 8.06137 11.1953 8.37796 11 8.57322C10.8048 8.76848 10.4882 8.76848 10.2929 8.57322L6.00004 4.28033L1.70714 8.57322C1.51188 8.76848 1.1953 8.76848 1.00004 8.57322C0.804775 8.37796 0.804775 8.06137 1.00004 7.86611L5.29293 3.57322C5.68346 3.18269 6.31662 3.1827 6.70714 3.57322Z" fill="#1A1A1A" fill-opacity="0.64"/>
</svg>
