<svg width="12" height="12" viewBox="0 0 12 12" fill="none" xmlns="http://www.w3.org/2000/svg">
<path fill-rule="evenodd" clip-rule="evenodd" d="M5.29286 8.42678L0.999962 4.13389C0.8047 3.93863 0.8047 3.62204 0.999962 3.42678C1.19522 3.23152 1.51181 3.23152 1.70707 3.42678L5.99996 7.71967L10.2929 3.42678C10.4881 3.23152 10.8047 3.23152 11 3.42678C11.1952 3.62204 11.1952 3.93863 11 4.13389L6.70707 8.42678C6.31654 8.81731 5.68338 8.8173 5.29286 8.42678Z" fill="#1A1A1A"/>
<path fill-rule="evenodd" clip-rule="evenodd" d="M5.29286 8.42678L0.999962 4.13389C0.8047 3.93863 0.8047 3.62204 0.999962 3.42678C1.19522 3.23152 1.51181 3.23152 1.70707 3.42678L5.99996 7.71967L10.2929 3.42678C10.4881 3.23152 10.8047 3.23152 11 3.42678C11.1952 3.62204 11.1952 3.93863 11 4.13389L6.70707 8.42678C6.31654 8.81731 5.68338 8.8173 5.29286 8.42678Z" fill="#1A1A1A"/>
</svg>
