<svg width="18" height="18" viewBox="0 0 18 18" fill="none" xmlns="http://www.w3.org/2000/svg">
<path fill-rule="evenodd" clip-rule="evenodd" d="M6.14642 14C5.95116 14.1953 5.63458 14.1953 5.43932 14L1.14642 9.70711C0.755899 9.31659 0.755898 8.68343 1.14642 8.2929L5.43932 4.00001C5.63458 3.80474 5.95116 3.80474 6.14642 4.00001C6.34169 4.19527 6.34169 4.51185 6.14642 4.70711L2.35353 8.50001L16.6464 8.50001C16.9226 8.50001 17.1464 8.72386 17.1464 9.00001C17.1464 9.27615 16.9226 9.50001 16.6464 9.50001L2.35353 9.50001L6.14642 13.2929C6.34169 13.4882 6.34169 13.8047 6.14642 14Z" fill="#1A1A1A"/>
<path fill-rule="evenodd" clip-rule="evenodd" d="M6.14642 14C5.95116 14.1953 5.63458 14.1953 5.43932 14L1.14642 9.70711C0.755899 9.31659 0.755898 8.68343 1.14642 8.2929L5.43932 4.00001C5.63458 3.80474 5.95116 3.80474 6.14642 4.00001C6.34169 4.19527 6.34169 4.51185 6.14642 4.70711L2.35353 8.50001L16.6464 8.50001C16.9226 8.50001 17.1464 8.72386 17.1464 9.00001C17.1464 9.27615 16.9226 9.50001 16.6464 9.50001L2.35353 9.50001L6.14642 13.2929C6.34169 13.4882 6.34169 13.8047 6.14642 14Z" fill="#1A1A1A"/>
<path fill-rule="evenodd" clip-rule="evenodd" d="M6.14642 14C5.95116 14.1953 5.63458 14.1953 5.43932 14L1.14642 9.70711C0.755899 9.31659 0.755898 8.68343 1.14642 8.2929L5.43932 4.00001C5.63458 3.80474 5.95116 3.80474 6.14642 4.00001C6.34169 4.19527 6.34169 4.51185 6.14642 4.70711L2.35353 8.50001L16.6464 8.50001C16.9226 8.50001 17.1464 8.72386 17.1464 9.00001C17.1464 9.27615 16.9226 9.50001 16.6464 9.50001L2.35353 9.50001L6.14642 13.2929C6.34169 13.4882 6.34169 13.8047 6.14642 14Z" fill="#1A1A1A"/>
<path fill-rule="evenodd" clip-rule="evenodd" d="M6.14642 14C5.95116 14.1953 5.63458 14.1953 5.43932 14L1.14642 9.70711C0.755899 9.31659 0.755898 8.68343 1.14642 8.2929L5.43932 4.00001C5.63458 3.80474 5.95116 3.80474 6.14642 4.00001C6.34169 4.19527 6.34169 4.51185 6.14642 4.70711L2.35353 8.50001L16.6464 8.50001C16.9226 8.50001 17.1464 8.72386 17.1464 9.00001C17.1464 9.27615 16.9226 9.50001 16.6464 9.50001L2.35353 9.50001L6.14642 13.2929C6.34169 13.4882 6.34169 13.8047 6.14642 14Z" fill="#1A1A1A"/>
</svg>
