<svg width="18" height="18" viewBox="0 0 18 18" fill="none" xmlns="http://www.w3.org/2000/svg">
<path fill-rule="evenodd" clip-rule="evenodd" d="M11.8536 3.99999C12.0488 3.80473 12.3654 3.80473 12.5607 3.99999L16.8536 8.29289C17.2441 8.68341 17.2441 9.31657 16.8536 9.7071L12.5607 14C12.3654 14.1953 12.0488 14.1953 11.8536 14C11.6583 13.8047 11.6583 13.4881 11.8536 13.2929L15.6465 9.49999L1.35358 9.49999C1.07743 9.49999 0.853577 9.27614 0.853577 8.99999C0.853577 8.72385 1.07743 8.49999 1.35358 8.49999L15.6465 8.49999L11.8536 4.7071C11.6583 4.51184 11.6583 4.19526 11.8536 3.99999Z" fill="#1A1A1A"/>
<path fill-rule="evenodd" clip-rule="evenodd" d="M11.8536 3.99999C12.0488 3.80473 12.3654 3.80473 12.5607 3.99999L16.8536 8.29289C17.2441 8.68341 17.2441 9.31657 16.8536 9.7071L12.5607 14C12.3654 14.1953 12.0488 14.1953 11.8536 14C11.6583 13.8047 11.6583 13.4881 11.8536 13.2929L15.6465 9.49999L1.35358 9.49999C1.07743 9.49999 0.853577 9.27614 0.853577 8.99999C0.853577 8.72385 1.07743 8.49999 1.35358 8.49999L15.6465 8.49999L11.8536 4.7071C11.6583 4.51184 11.6583 4.19526 11.8536 3.99999Z" fill="#1A1A1A"/>
<path fill-rule="evenodd" clip-rule="evenodd" d="M11.8536 3.99999C12.0488 3.80473 12.3654 3.80473 12.5607 3.99999L16.8536 8.29289C17.2441 8.68341 17.2441 9.31657 16.8536 9.7071L12.5607 14C12.3654 14.1953 12.0488 14.1953 11.8536 14C11.6583 13.8047 11.6583 13.4881 11.8536 13.2929L15.6465 9.49999L1.35358 9.49999C1.07743 9.49999 0.853577 9.27614 0.853577 8.99999C0.853577 8.72385 1.07743 8.49999 1.35358 8.49999L15.6465 8.49999L11.8536 4.7071C11.6583 4.51184 11.6583 4.19526 11.8536 3.99999Z" fill="#1A1A1A"/>
<path fill-rule="evenodd" clip-rule="evenodd" d="M11.8536 3.99999C12.0488 3.80473 12.3654 3.80473 12.5607 3.99999L16.8536 8.29289C17.2441 8.68341 17.2441 9.31657 16.8536 9.7071L12.5607 14C12.3654 14.1953 12.0488 14.1953 11.8536 14C11.6583 13.8047 11.6583 13.4881 11.8536 13.2929L15.6465 9.49999L1.35358 9.49999C1.07743 9.49999 0.853577 9.27614 0.853577 8.99999C0.853577 8.72385 1.07743 8.49999 1.35358 8.49999L15.6465 8.49999L11.8536 4.7071C11.6583 4.51184 11.6583 4.19526 11.8536 3.99999Z" fill="#1A1A1A"/>
</svg>
