<svg width="83" height="24" viewBox="0 0 83 24" fill="none" xmlns="http://www.w3.org/2000/svg">
<path fill-rule="evenodd" clip-rule="evenodd" d="M81.557 18.846C81.557 19.5248 81.594 20.0858 81.668 20.5291C81.7568 20.9586 81.8678 21.3049 82.001 21.5681C82.1342 21.8174 82.2822 22.0045 82.445 22.1291C82.6226 22.24 82.8076 22.3231 83 22.3785V23.3136H76.0514C75.933 23.0504 75.7998 22.704 75.6518 22.2746C75.5186 21.8313 75.452 21.298 75.452 20.6746C74.9636 21.1456 74.4826 21.582 74.0089 21.9837C73.5501 22.3854 73.0322 22.7387 72.4549 23.0434C71.8777 23.3343 71.2117 23.5629 70.4569 23.7291C69.7021 23.9092 68.7919 23.9993 67.7263 23.9993C66.6459 23.9993 65.6469 23.8469 64.7293 23.5421C63.8265 23.2512 63.0421 22.8149 62.3761 22.233C61.7101 21.6512 61.1921 20.9239 60.8221 20.0512C60.4521 19.1785 60.2671 18.1672 60.2671 17.0174C60.2671 16.0893 60.4225 15.2304 60.7333 14.4408C61.0441 13.6374 61.4807 12.9378 62.0431 12.3421C62.6203 11.7326 63.3159 11.2339 64.1299 10.846C64.9587 10.4443 65.8837 10.1742 66.9049 10.0356L73.0543 9.18368C73.2764 9.15598 73.5132 9.11442 73.7647 9.05901C74.0312 9.0036 74.2754 8.91355 74.4974 8.78888C74.7194 8.65035 74.9044 8.47026 75.0524 8.24862C75.2004 8.01312 75.2744 7.70143 75.2744 7.31355C75.2744 6.93953 75.2078 6.60013 75.0746 6.29537C74.9562 5.97676 74.749 5.70663 74.453 5.48498C74.157 5.24948 73.7573 5.0694 73.2542 4.94472C72.7657 4.82005 72.1515 4.75771 71.4115 4.75771C70.5679 4.75771 69.8871 4.84083 69.3691 5.00706C68.8659 5.15944 68.4663 5.38109 68.1703 5.67199C67.8743 5.94905 67.6597 6.28152 67.5265 6.6694C67.3933 7.04342 67.2971 7.44515 67.2379 7.87459H60.9553C60.9553 7.59754 60.9997 7.21658 61.0885 6.73173C61.1721 6.32935 61.3038 5.89992 61.4838 5.44342H53.5352V23.3136H47.2526V19.2703C47.1744 19.3914 47.0912 19.5132 47.0029 19.6356C46.6181 20.1759 46.1297 20.7092 45.5376 21.2356C44.9456 21.762 44.2426 22.233 43.4286 22.6486C42.6146 23.0504 41.6896 23.3759 40.6536 23.6252C39.6324 23.8746 38.4928 23.9993 37.2348 23.9993C35.6216 23.9993 34.1046 23.7707 32.6838 23.3136C31.2778 22.8703 30.042 22.1638 28.9764 21.1941C28.1037 20.3773 27.3842 19.3647 26.8177 18.1562V23.3136H20.9125V5.09018H20.8237L16.2727 23.3136H10.5451L6.01623 5.09018H5.90523V23.3136H0V0.664203H9.45725L13.5421 17.1006H13.6531L17.6491 0.664203H26.8177V5.79228C27.2072 4.97745 27.6899 4.23086 28.266 3.55251C29.1984 2.47199 30.3824 1.61312 31.818 0.975891C33.2684 0.324809 35.0074 -0.000732422 37.035 -0.000732422C39.181 -0.000732422 40.9866 0.331735 42.4518 0.99667C43.917 1.64775 45.0936 2.57589 45.9816 3.78109C46.4862 4.45463 46.9098 5.20605 47.2526 6.03535V0.664203H63.5253V2.49247C63.8323 2.22245 64.1744 1.96628 64.5517 1.72394C65.3213 1.22524 66.2537 0.816584 67.3489 0.497969C68.4441 0.179354 69.7539 0.0131204 71.2783 -0.000732422C73.4391 -0.000732422 75.1856 0.20706 76.5176 0.622644C77.8644 1.02438 78.9078 1.55771 79.6478 2.22264C80.4026 2.87373 80.9058 3.60793 81.1574 4.42524C81.4238 5.2287 81.557 6.03217 81.557 6.83563V18.846ZM74.1199 12.7993C74.5048 12.633 74.8896 12.4529 75.2744 12.259V14.5447C75.2744 15.3066 75.1708 15.9716 74.9636 16.5395C74.7564 17.0936 74.49 17.5646 74.1644 17.9525C73.8388 18.3404 73.4688 18.659 73.0543 18.9084C72.6399 19.1439 72.2255 19.3309 71.8111 19.4694C71.3967 19.6079 71.0045 19.7049 70.6345 19.7603C70.2645 19.8019 69.9611 19.8226 69.7243 19.8226C69.2803 19.8226 68.8659 19.7672 68.4811 19.6564C68.0963 19.5456 67.7559 19.3794 67.4599 19.1577C67.1787 18.9222 66.9567 18.6313 66.7939 18.285C66.6311 17.9248 66.5497 17.5023 66.5497 17.0174C66.5497 16.4356 66.6385 15.9508 66.8161 15.5629C67.0085 15.175 67.2823 14.8495 67.6375 14.5863C68.0075 14.3092 68.4663 14.0876 69.0139 13.9213C69.5615 13.7551 70.1979 13.6097 70.9231 13.485L72.5881 13.1941C73.2245 13.0833 73.7352 12.9516 74.1199 12.7993ZM31.9734 14.6486C31.929 14.3023 31.9068 14.0252 31.9068 13.8174H47.2526V16.5811H41.6748C41.5564 16.9967 41.3566 17.3707 41.0754 17.7032C40.809 18.0218 40.4908 18.2988 40.1208 18.5343C39.7508 18.756 39.3438 18.9291 38.8998 19.0538C38.4706 19.1646 38.034 19.22 37.59 19.22C36.7316 19.22 35.9916 19.1161 35.37 18.9084C34.7632 18.7006 34.2452 18.4304 33.816 18.098C33.4016 17.7655 33.0686 17.3984 32.817 16.9967C32.5654 16.5811 32.373 16.1724 32.2398 15.7707C32.1066 15.369 32.0178 14.9949 31.9734 14.6486ZM41.475 7.41745C41.8006 8.08238 41.9634 8.91355 41.9634 9.91096H32.1288C32.1288 8.91355 32.2842 8.08238 32.595 7.41745C32.9206 6.75251 33.3202 6.22611 33.7938 5.83823C34.2822 5.4365 34.815 5.15944 35.3922 5.00706C35.9694 4.84083 36.517 4.75771 37.035 4.75771C37.5678 4.75771 38.1228 4.84083 38.7 5.00706C39.2772 5.15944 39.8026 5.4365 40.2762 5.83823C40.7646 6.22611 41.1642 6.75251 41.475 7.41745Z" fill="#1A1A1A"/>
<path fill-rule="evenodd" clip-rule="evenodd" d="M81.557 18.846C81.557 19.5248 81.594 20.0858 81.668 20.5291C81.7568 20.9586 81.8678 21.3049 82.001 21.5681C82.1342 21.8174 82.2822 22.0045 82.445 22.1291C82.6226 22.24 82.8076 22.3231 83 22.3785V23.3136H76.0514C75.933 23.0504 75.7998 22.704 75.6518 22.2746C75.5186 21.8313 75.452 21.298 75.452 20.6746C74.9636 21.1456 74.4826 21.582 74.0089 21.9837C73.5501 22.3854 73.0322 22.7387 72.4549 23.0434C71.8777 23.3343 71.2117 23.5629 70.4569 23.7291C69.7021 23.9092 68.7919 23.9993 67.7263 23.9993C66.6459 23.9993 65.6469 23.8469 64.7293 23.5421C63.8265 23.2512 63.0421 22.8149 62.3761 22.233C61.7101 21.6512 61.1921 20.9239 60.8221 20.0512C60.4521 19.1785 60.2671 18.1672 60.2671 17.0174C60.2671 16.0893 60.4225 15.2304 60.7333 14.4408C61.0441 13.6374 61.4807 12.9378 62.0431 12.3421C62.6203 11.7326 63.3159 11.2339 64.1299 10.846C64.9587 10.4443 65.8837 10.1742 66.9049 10.0356L73.0543 9.18368C73.2764 9.15598 73.5132 9.11442 73.7647 9.05901C74.0312 9.0036 74.2754 8.91355 74.4974 8.78888C74.7194 8.65035 74.9044 8.47026 75.0524 8.24862C75.2004 8.01312 75.2744 7.70143 75.2744 7.31355C75.2744 6.93953 75.2078 6.60013 75.0746 6.29537C74.9562 5.97676 74.749 5.70663 74.453 5.48498C74.157 5.24948 73.7573 5.0694 73.2542 4.94472C72.7657 4.82005 72.1515 4.75771 71.4115 4.75771C70.5679 4.75771 69.8871 4.84083 69.3691 5.00706C68.8659 5.15944 68.4663 5.38109 68.1703 5.67199C67.8743 5.94905 67.6597 6.28152 67.5265 6.6694C67.3933 7.04342 67.2971 7.44515 67.2379 7.87459H60.9553C60.9553 7.59754 60.9997 7.21658 61.0885 6.73173C61.1721 6.32935 61.3038 5.89992 61.4838 5.44342H53.5352V23.3136H47.2526V19.2703C47.1744 19.3914 47.0912 19.5132 47.0029 19.6356C46.6181 20.1759 46.1297 20.7092 45.5376 21.2356C44.9456 21.762 44.2426 22.233 43.4286 22.6486C42.6146 23.0504 41.6896 23.3759 40.6536 23.6252C39.6324 23.8746 38.4928 23.9993 37.2348 23.9993C35.6216 23.9993 34.1046 23.7707 32.6838 23.3136C31.2778 22.8703 30.042 22.1638 28.9764 21.1941C28.1037 20.3773 27.3842 19.3647 26.8177 18.1562V23.3136H20.9125V5.09018H20.8237L16.2727 23.3136H10.5451L6.01623 5.09018H5.90523V23.3136H0V0.664203H9.45725L13.5421 17.1006H13.6531L17.6491 0.664203H26.8177V5.79228C27.2072 4.97745 27.6899 4.23086 28.266 3.55251C29.1984 2.47199 30.3824 1.61312 31.818 0.975891C33.2684 0.324809 35.0074 -0.000732422 37.035 -0.000732422C39.181 -0.000732422 40.9866 0.331735 42.4518 0.99667C43.917 1.64775 45.0936 2.57589 45.9816 3.78109C46.4862 4.45463 46.9098 5.20605 47.2526 6.03535V0.664203H63.5253V2.49247C63.8323 2.22245 64.1744 1.96628 64.5517 1.72394C65.3213 1.22524 66.2537 0.816584 67.3489 0.497969C68.4441 0.179354 69.7539 0.0131204 71.2783 -0.000732422C73.4391 -0.000732422 75.1856 0.20706 76.5176 0.622644C77.8644 1.02438 78.9078 1.55771 79.6478 2.22264C80.4026 2.87373 80.9058 3.60793 81.1574 4.42524C81.4238 5.2287 81.557 6.03217 81.557 6.83563V18.846ZM74.1199 12.7993C74.5048 12.633 74.8896 12.4529 75.2744 12.259V14.5447C75.2744 15.3066 75.1708 15.9716 74.9636 16.5395C74.7564 17.0936 74.49 17.5646 74.1644 17.9525C73.8388 18.3404 73.4688 18.659 73.0543 18.9084C72.6399 19.1439 72.2255 19.3309 71.8111 19.4694C71.3967 19.6079 71.0045 19.7049 70.6345 19.7603C70.2645 19.8019 69.9611 19.8226 69.7243 19.8226C69.2803 19.8226 68.8659 19.7672 68.4811 19.6564C68.0963 19.5456 67.7559 19.3794 67.4599 19.1577C67.1787 18.9222 66.9567 18.6313 66.7939 18.285C66.6311 17.9248 66.5497 17.5023 66.5497 17.0174C66.5497 16.4356 66.6385 15.9508 66.8161 15.5629C67.0085 15.175 67.2823 14.8495 67.6375 14.5863C68.0075 14.3092 68.4663 14.0876 69.0139 13.9213C69.5615 13.7551 70.1979 13.6097 70.9231 13.485L72.5881 13.1941C73.2245 13.0833 73.7352 12.9516 74.1199 12.7993ZM31.9734 14.6486C31.929 14.3023 31.9068 14.0252 31.9068 13.8174H47.2526V16.5811H41.6748C41.5564 16.9967 41.3566 17.3707 41.0754 17.7032C40.809 18.0218 40.4908 18.2988 40.1208 18.5343C39.7508 18.756 39.3438 18.9291 38.8998 19.0538C38.4706 19.1646 38.034 19.22 37.59 19.22C36.7316 19.22 35.9916 19.1161 35.37 18.9084C34.7632 18.7006 34.2452 18.4304 33.816 18.098C33.4016 17.7655 33.0686 17.3984 32.817 16.9967C32.5654 16.5811 32.373 16.1724 32.2398 15.7707C32.1066 15.369 32.0178 14.9949 31.9734 14.6486ZM41.475 7.41745C41.8006 8.08238 41.9634 8.91355 41.9634 9.91096H32.1288C32.1288 8.91355 32.2842 8.08238 32.595 7.41745C32.9206 6.75251 33.3202 6.22611 33.7938 5.83823C34.2822 5.4365 34.815 5.15944 35.3922 5.00706C35.9694 4.84083 36.517 4.75771 37.035 4.75771C37.5678 4.75771 38.1228 4.84083 38.7 5.00706C39.2772 5.15944 39.8026 5.4365 40.2762 5.83823C40.7646 6.22611 41.1642 6.75251 41.475 7.41745Z" fill="#1A1A1A"/>
</svg>
